<svg height="512" viewBox="0 0 44 60" width="512" xmlns="http://www.w3.org/2000/svg"><g id="042---Mirror"><path id="Shape" d="m22 38c7.168 0 13-7.626 13-17s-5.832-17-13-17-13 7.626-13 17 5.832 17 13 17zm0-32c6.065 0 11 6.729 11 15s-4.935 15-11 15-11-6.729-11-15 4.935-15 11-15z"/><path id="Shape" d="m41.778 25.885c1.3063629-.3507722 2.2164224-1.5323751 2.222-2.885v-4c0-1.6568542-1.3431458-3-3-3h-2.507c-1.824-9.169-8.516-16-16.493-16s-14.669 6.831-16.493 16h-2.507c-1.65685425 0-3 1.3431458-3 3v4c.00557759 1.3526249.91563706 2.5342278 2.222 2.885.638 5.17 3.568 18.235 16.778 20v6.115h-6c-3.31233757.0033074-5.99669262 2.6876624-6 6 0 1.1045695.8954305 2 2 2h26c1.1045695 0 2-.8954305 2-2-.0033074-3.3123376-2.6876624-5.9966926-6-6h-6v-6.115c13.21-1.765 16.14-14.83 16.778-20zm-.778-7.885c.5522847 0 1 .4477153 1 1v4c0 .5522847-.4477153 1-1 1h-2.194c.2579951-1.9916798.2579951-4.0083202 0-6zm-19-16c8.271 0 15 8.523 15 19s-6.729 19-15 19-15-8.523-15-19 6.729-19 15-19zm-20 17c0-.5522847.44771525-1 1-1h2.194c-.25799514 1.9916798-.25799514 4.0083202 0 6h-2.194c-.55228475 0-1-.4477153-1-1zm2.25 7h1.257c1.824 9.169 8.516 16 16.493 16s14.669-6.831 16.493-16h1.257c-1.521 11.611-8.272 19.025-19.66 18-12.046-1.088-15.08-12.2-15.84-18zm30.75 32h-26c0-2.209139 1.790861-4 4-4h18c2.2077689.0033042 3.9966958 1.7922311 4 4zm-14-6v-5.955c.6652252.0619996 1.3347748.0619996 2 0v5.955z"/><path id="Shape" d="m15 17c.2651948-.0000566.5195073-.1054506.707-.293l5-5c.3789722-.3923789.3735524-1.0160848-.0121814-1.4018186-.3857338-.38573377-1.0094397-.39115361-1.4018186-.0121814l-5 5c-.2859079.2859943-.3714219.7160366-.216678 1.0896546.1547439.3736179.5192821.6172591.923678.6173454z"/><path id="Shape" d="m14.293 21.707c.3904999.3903819 1.0235001.3903819 1.414 0l10-10c.3789722-.3923789.3735524-1.0160848-.0121814-1.4018186-.3857338-.38573377-1.0094397-.39115361-1.4018186-.0121814l-10 10c-.3903819.3904999-.3903819 1.0235001 0 1.414z"/></g></svg>