<svg height="511pt" viewBox="0 -96 511.99982 511" width="511pt" xmlns="http://www.w3.org/2000/svg"><path d="m320.71875 319.097656c-10.367188 0-17.058594-.597656-18.078125-.695312-7.449219-.710938-13.34375-6.605469-14.054687-14.050782-.398438-4.175781-9.105469-102.851562 48.355468-160.3125 57.460938-57.460937 156.140625-48.753906 160.3125-48.355468 7.445313.710937 13.339844 6.605468 14.050782 14.054687.398437 4.171875 9.105468 102.847657-48.355469 160.308594-43.386719 43.386719-110.273438 49.050781-142.230469 49.050781zm-1.570312-31.285156c.296874.003906.601562.003906.90625.003906 26.960937 0 85.398437-4.421875 120.820312-39.84375 35.804688-35.804687 39.9375-95.132812 39.839844-121.699218-26.5625-.101563-85.882813 4.03125-121.695313 39.84375-35.960937 35.957031-40.015625 95.183593-39.871093 121.695312zm0 0" fill="#8cdc52"/><path d="m278.109375 319.367188c-15.027344 0-35.539063-.851563-58.582031-4.15625-62.566406-8.972657-113.964844-32.046876-148.648438-66.726563-34.679687-34.679687-57.753906-86.082031-66.722656-148.648437-6.675781-46.550782-3.339844-82.800782-3.195312-84.320313.710937-7.445313 6.605468-13.34375 14.054687-14.054687 1.519531-.144532 37.769531-3.480469 84.320313 3.195312 62.566406 8.96875 113.96875 32.042969 148.648437 66.726562 34.679687 34.679688 57.753906 86.082032 66.726563 148.644532 6.671874 46.554687 3.339843 82.800781 3.191406 84.324218-.710938 7.445313-6.605469 13.339844-14.054688 14.050782-.765625.074218-10.398437.960937-25.738281.964844zm24.253906-16.503907h.011719zm-270.976562-270.996093c-.878907 35.878906 2.472656 135.441406 61.570312 194.539062 59.246094 59.246094 158.652344 62.523438 194.519531 61.589844.878907-35.878906-2.472656-135.441406-61.570312-194.539063-59.242188-59.246093-158.640625-62.523437-194.519531-61.589843zm0 0" fill="#bffb32"/><path d="m410.984375 196.003906c-6.097656-6.09375-15.980469-6.09375-22.078125 0l-85.660156 85.667969-132.777344-132.777344c-6.09375-6.09375-15.980469-6.09375-22.074219 0-6.097656 6.09375-6.097656 15.980469 0 22.074219l142.933594 142.933594c3.046875 3.046875 7.042969 4.574218 11.035156 4.574218.292969 0 .585938-.007812.882813-.027343.292968.019531.585937.027343.878906.027343 3.996094 0 7.988281-1.527343 11.035156-4.574218l95.824219-95.820313c6.09375-6.097656 6.09375-15.980469 0-22.078125zm0 0" fill="#5dc378"/></svg>